<?xml version="1.0" encoding="UTF-8"?>
<svg height="600" width="800" xmlns="http://www.w3.org/2000/svg" xmlns:xlink="http://www.w3.org/1999/xlink">
    <g id="Notes" font-family="'LucidaGrande', 'Lucida Grande', sans-serif" font-size="13">
        <rect fill="white" height="600.0" width="800.0" x="0.0" y="0.0" />
        <g font-size="13">
            <text x="18.0" y="176.0">Small</text>
            <text x="18.0" y="376.0">Medium</text>
            <text x="18.0" y="576.0">Large</text>
        </g>
        <g font-size="9">
            <text x="250.0" y="30.0">Ultralight</text>
            <text x="450.0" y="30.0">Regular</text>
            <text x="650.0" y="30.0">Black</text>
            <text id="template-version" fill="#505050" text-anchor="end" x="785.0" y="575.0">Template v.3.0</text>
            <a href="https://github.com/swhitty/SwiftDraw">
                <text fill="#505050" text-anchor="end" x="785.0" y="590.0">https://github.com/swhitty/SwiftDraw</text>
            </a>
        </g>
    </g>
    <g id="Guides" stroke="rgb(39, 170, 225)" stroke-width="0.5">
        <path id="Capline-S" d="M18,76 l800,0" />
        <path id="H-reference" d="M85,145.755 L87.685,145.755 L113.369,79.287 L114.052,79.287 L114.052,76 L112.148,76 L85,145.755 Z M95.693,121.536 L130.996,121.536 L130.263,119.313 L96.474,119.313 L95.693,121.536 Z M139.15,145.755 L141.787,145.755 L114.638,76 L113.466,76 L113.466,79.287 L139.15,145.755 Z" stroke="none" transform="translate(0,0)" />
        <path id="Baseline-S" d="M18,146 l800,0" />
        <path id="left-margin-Ultralight-S" d="M226.499,56 l0,110" />
        <path id="right-margin-Ultralight-S" d="M303.501,56 l0,110" />
        <path id="left-margin-Regular-S" d="M426.499,56 l0,110" />
        <path id="right-margin-Regular-S" d="M503.501,56 l0,110" />
        <path id="left-margin-Black-S" d="M626.499,56 l0,110" />
        <path id="right-margin-Black-S" d="M703.501,56 l0,110" />
        <path id="Capline-M" d="M18,276 l800,0" />
        <path id="Baseline-M" d="M18,346 l800,0" />
        <path id="Capline-L" d="M18,476 l800,0" />
        <path id="Baseline-L" d="M18,546 l800,0" />
    </g>
    <g id="Symbols">
        <g id="Ultralight-S" transform="translate(0,0)">
            <path d="M265,76 C284.33,76 300,91.67 300,111 C300,130.33 284.33,146 265,146 C245.67,146 230,130.33 230,111 C230,91.67 245.67,76 265,76 Z M253.182,85.667 C261.717,85.667 268.637,92.585 268.637,101.121 C268.637,109.656 261.717,116.576 253.182,116.576 C244.647,116.576 237.728,109.656 237.727,101.121 C237.727,92.585 244.647,85.667 253.182,85.667 Z" />
        </g>
        <g id="Regular-S" transform="translate(0,0)">
            <path d="M465,76 C484.33,76 500,91.67 500,111 C500,130.33 484.33,146 465,146 C445.67,146 430,130.33 430,111 C430,91.67 445.67,76 465,76 Z M453.182,85.667 C461.717,85.667 468.637,92.585 468.637,101.121 C468.637,109.656 461.717,116.576 453.182,116.576 C444.647,116.576 437.728,109.656 437.727,101.121 C437.727,92.585 444.647,85.667 453.182,85.667 Z" />
        </g>
        <g id="Black-S" transform="translate(0,0)">
            <path d="M665,76 C684.33,76 700,91.67 700,111 C700,130.33 684.33,146 665,146 C645.67,146 630,130.33 630,111 C630,91.67 645.67,76 665,76 Z M653.182,85.667 C661.717,85.667 668.637,92.585 668.637,101.121 C668.637,109.656 661.717,116.576 653.182,116.576 C644.647,116.576 637.728,109.656 637.727,101.121 C637.727,92.585 644.647,85.667 653.182,85.667 Z" />
        </g>
    </g>
</svg>